<mxfile host="app.diagrams.net" agent="Mozilla/5.0 (Windows NT 10.0; Win64; x64) AppleWebKit/537.36 (KHTML, like Gecko) Chrome/131.0.0.0 Safari/537.36" version="26.0.4">
  <diagram name="第 1 页" id="n2MJnIgt2Xy7KCjtbhIw">
    <mxGraphModel dx="1502" dy="556" grid="0" gridSize="10" guides="1" tooltips="1" connect="1" arrows="1" fold="1" page="0" pageScale="1" pageWidth="827" pageHeight="1169" math="0" shadow="0">
      <root>
        <mxCell id="0" />
        <mxCell id="1" parent="0" />
        <mxCell id="T1MhQYc2PfSalNcAAAGk-2" value="" style="shape=cylinder3;whiteSpace=wrap;html=1;boundedLbl=1;backgroundOutline=1;size=15;" vertex="1" parent="1">
          <mxGeometry x="74" y="252" width="171" height="99" as="geometry" />
        </mxCell>
        <mxCell id="T1MhQYc2PfSalNcAAAGk-3" value="订单表(order)" style="rounded=0;whiteSpace=wrap;html=1;" vertex="1" parent="1">
          <mxGeometry x="99.5" y="301" width="120" height="26" as="geometry" />
        </mxCell>
        <mxCell id="T1MhQYc2PfSalNcAAAGk-7" value="" style="shape=cylinder3;whiteSpace=wrap;html=1;boundedLbl=1;backgroundOutline=1;size=15;" vertex="1" parent="1">
          <mxGeometry x="413.5" y="206" width="139" height="87" as="geometry" />
        </mxCell>
        <mxCell id="T1MhQYc2PfSalNcAAAGk-9" value="订单表(order)" style="rounded=0;whiteSpace=wrap;html=1;" vertex="1" parent="1">
          <mxGeometry x="423" y="249" width="120" height="26" as="geometry" />
        </mxCell>
        <mxCell id="T1MhQYc2PfSalNcAAAGk-11" value="" style="shape=cylinder3;whiteSpace=wrap;html=1;boundedLbl=1;backgroundOutline=1;size=15;" vertex="1" parent="1">
          <mxGeometry x="413.5" y="308" width="139" height="87" as="geometry" />
        </mxCell>
        <mxCell id="T1MhQYc2PfSalNcAAAGk-12" value="订单表(order)" style="rounded=0;whiteSpace=wrap;html=1;" vertex="1" parent="1">
          <mxGeometry x="423" y="351" width="120" height="26" as="geometry" />
        </mxCell>
        <mxCell id="T1MhQYc2PfSalNcAAAGk-32" value="" style="shape=cylinder3;whiteSpace=wrap;html=1;boundedLbl=1;backgroundOutline=1;size=15;" vertex="1" parent="1">
          <mxGeometry x="669" y="238.75" width="171" height="109.5" as="geometry" />
        </mxCell>
        <mxCell id="T1MhQYc2PfSalNcAAAGk-33" value="日志表(log)" style="rounded=0;whiteSpace=wrap;html=1;" vertex="1" parent="1">
          <mxGeometry x="694.5" y="292.75" width="120" height="26" as="geometry" />
        </mxCell>
        <mxCell id="T1MhQYc2PfSalNcAAAGk-92" value="" style="line;strokeWidth=1;html=1;" vertex="1" parent="1">
          <mxGeometry x="245" y="299" width="78" height="10" as="geometry" />
        </mxCell>
        <mxCell id="T1MhQYc2PfSalNcAAAGk-93" style="rounded=0;orthogonalLoop=1;jettySize=auto;html=1;entryX=0;entryY=0.5;entryDx=0;entryDy=0;entryPerimeter=0;exitX=1;exitY=0.5;exitDx=0;exitDy=0;exitPerimeter=0;" edge="1" parent="1" source="T1MhQYc2PfSalNcAAAGk-92" target="T1MhQYc2PfSalNcAAAGk-7">
          <mxGeometry relative="1" as="geometry">
            <mxPoint x="356" y="486" as="sourcePoint" />
          </mxGeometry>
        </mxCell>
        <mxCell id="T1MhQYc2PfSalNcAAAGk-94" style="rounded=0;orthogonalLoop=1;jettySize=auto;html=1;entryX=0;entryY=0.5;entryDx=0;entryDy=0;entryPerimeter=0;exitX=1;exitY=0.5;exitDx=0;exitDy=0;exitPerimeter=0;" edge="1" parent="1" source="T1MhQYc2PfSalNcAAAGk-92" target="T1MhQYc2PfSalNcAAAGk-11">
          <mxGeometry relative="1" as="geometry" />
        </mxCell>
        <mxCell id="T1MhQYc2PfSalNcAAAGk-98" value="&lt;font style=&quot;font-size: 14px;&quot;&gt;水平分库&lt;/font&gt;" style="text;html=1;align=center;verticalAlign=middle;resizable=0;points=[];autosize=1;strokeColor=none;fillColor=none;" vertex="1" parent="1">
          <mxGeometry x="247" y="272" width="74" height="29" as="geometry" />
        </mxCell>
        <mxCell id="T1MhQYc2PfSalNcAAAGk-100" value="" style="shape=cylinder3;whiteSpace=wrap;html=1;boundedLbl=1;backgroundOutline=1;size=15;" vertex="1" parent="1">
          <mxGeometry x="1026" y="222.88" width="171" height="141.25" as="geometry" />
        </mxCell>
        <mxCell id="T1MhQYc2PfSalNcAAAGk-101" value="日志表(log01)" style="rounded=0;whiteSpace=wrap;html=1;" vertex="1" parent="1">
          <mxGeometry x="1051.5" y="263.13" width="120" height="26" as="geometry" />
        </mxCell>
        <mxCell id="T1MhQYc2PfSalNcAAAGk-102" value="日志表(log02)" style="rounded=0;whiteSpace=wrap;html=1;" vertex="1" parent="1">
          <mxGeometry x="1051.5" y="289.13" width="120" height="26" as="geometry" />
        </mxCell>
        <mxCell id="T1MhQYc2PfSalNcAAAGk-103" value="日志表(log03)" style="rounded=0;whiteSpace=wrap;html=1;" vertex="1" parent="1">
          <mxGeometry x="1051.5" y="315.13" width="120" height="26" as="geometry" />
        </mxCell>
        <mxCell id="T1MhQYc2PfSalNcAAAGk-104" style="edgeStyle=orthogonalEdgeStyle;rounded=0;orthogonalLoop=1;jettySize=auto;html=1;entryX=0;entryY=0.5;entryDx=0;entryDy=0;entryPerimeter=0;" edge="1" parent="1" source="T1MhQYc2PfSalNcAAAGk-32" target="T1MhQYc2PfSalNcAAAGk-100">
          <mxGeometry relative="1" as="geometry" />
        </mxCell>
        <mxCell id="T1MhQYc2PfSalNcAAAGk-105" value="&lt;font style=&quot;font-size: 14px;&quot;&gt;水平分表&lt;/font&gt;" style="text;html=1;align=center;verticalAlign=middle;resizable=0;points=[];autosize=1;strokeColor=none;fillColor=none;" vertex="1" parent="1">
          <mxGeometry x="892" y="264" width="74" height="29" as="geometry" />
        </mxCell>
      </root>
    </mxGraphModel>
  </diagram>
</mxfile>
